# xmcd CD Database Entry
#
# Track frame offsets:
# 183
# 24485
# 48708
# 71435
# 103685
# 124838
# 145840
# 168930
#
# Disc length: 2640 seconds
#
# Revision: 2
# Processed by: cddbd v1.4PL0 Copyright (c) Steve Scherf et al.
# Submitted via: tcd 2.0b
#
DISCID=6c0a4e08
DTITLE=Mahlathini and the Mahotella Queens - Music Of Our Soul
DYEAR=1900
DGENRE=
TTITLE0=Music Of Our Soul
TTITLE1=Kazet
TTITLE2=Wamuhle Umakoti (You've Changed)
TTITLE3=Yebo (Mbaqanga Mix)
TTITLE4=Can You Feel It (Hey Ta Da)
TTITLE5=Marabi Yo
TTITLE6=Madlamini
TTITLE7=Music of Our Soul (Move Mix)
EXTD=
EXTT0=
EXTT1=
EXTT2=
EXTT3=
EXTT4=
EXTT5=
EXTT6=
EXTT7=
PLAYORDER=
